<svg id="Layer_1"  enable-background="new 0 0 64 64" height="512" viewBox="0 0 64 64" width="512" xmlns="http://www.w3.org/2000/svg"><g><g><path d="m16.07 17.54-3.66 3.66-1.09-1.09c-.38-.38-.99-.38-1.37 0s-.38.99 0 1.37l1.78 1.78c.18.18.43.28.69.28s.5-.1.69-.28l4.35-4.35c.38-.38.38-.99 0-1.37-.39-.38-1.01-.38-1.39 0z"/><path d="m21.05 21.37h20.61c.54 0 .97-.43.97-.97s-.43-.97-.97-.97h-20.61c-.54 0-.97.43-.97.97 0 .53.43.97.97.97z"/><path d="m16.07 28.48-3.66 3.66-1.09-1.09c-.38-.38-.99-.38-1.37 0s-.38.99 0 1.37l1.78 1.78c.19.19.44.28.69.28s.5-.09.69-.28l4.35-4.35c.38-.38.38-.99 0-1.37-.39-.38-1.01-.38-1.39 0z"/><path d="m21.05 32.31h20.61c.54 0 .97-.43.97-.97s-.43-.97-.97-.97h-20.61c-.54 0-.97.43-.97.97s.43.97.97.97z"/><path d="m16.07 39.42-3.66 3.66-1.09-1.09c-.38-.38-.99-.38-1.37 0s-.38.99 0 1.37l1.78 1.78c.18.18.43.28.69.28s.5-.1.69-.28l4.35-4.35c.38-.38.38-.99 0-1.37-.39-.38-1.01-.38-1.39 0z"/><path d="m31.96 41.31h-10.91c-.54 0-.97.43-.97.97s.43.97.97.97h10.91c.54 0 .97-.43.97-.97s-.43-.97-.97-.97z"/><path d="m16.07 50.36-3.66 3.66-1.09-1.09c-.38-.38-.99-.38-1.37 0s-.38.99 0 1.37l1.78 1.78c.19.19.44.28.69.28s.5-.09.69-.28l4.35-4.35c.38-.38.38-.99 0-1.37-.39-.38-1.01-.38-1.39 0z"/><path d="m31.96 52.25h-10.91c-.54 0-.97.43-.97.97s.43.97.97.97h10.91c.54 0 .97-.43.97-.97s-.43-.97-.97-.97z"/><path d="m60.46 44.5c-.06-.28-.24-.52-.49-.66s-.55-.15-.82-.05l-.23.09c-.55.21-1.18-.07-1.39-.61-.1-.26-.1-.55.02-.82.12-.26.32-.46.59-.57l.23-.09c.27-.1.47-.32.56-.59s.06-.57-.09-.81c-.95-1.56-2.26-2.93-3.8-3.95-.24-.16-.53-.2-.81-.12s-.5.28-.61.54l-.1.23c-.23.53-.88.78-1.41.55-.54-.24-.79-.87-.55-1.41l.1-.23c.11-.26.11-.56-.02-.82s-.36-.44-.64-.51c-.66-.16-1.33-.25-2-.3v-23.38c0-2.14-1.74-3.89-3.89-3.89h-5.27c-.58-1.75-2.21-3.02-4.15-3.02h-4.59c-.44-2.32-2.5-4.08-4.95-4.08-2.46 0-4.51 1.76-4.96 4.08h-4.59c-1.94 0-3.57 1.27-4.15 3.02h-5.27c-2.14 0-3.89 1.74-3.89 3.89v49.13c0 2.14 1.74 3.88 3.89 3.88h37.94c2.14 0 3.89-1.74 3.89-3.88v-.49c.51-.04 1.03-.1 1.53-.2.28-.06.52-.24.66-.49s.16-.55.05-.82l-.09-.23c-.22-.55.06-1.17.61-1.39.54-.22 1.18.07 1.39.61l.09.23c.1.27.32.47.59.56s.57.06.81-.09c1.56-.95 2.93-2.27 3.95-3.8.16-.24.2-.54.12-.81s-.28-.5-.54-.61l-.23-.1c-.26-.11-.46-.32-.57-.59-.1-.27-.1-.56.02-.82.23-.53.88-.79 1.41-.55l.23.1c.26.11.56.11.82-.02s.44-.36.51-.64c.42-1.78.46-3.67.09-5.47zm-43.86-38.48h5.46c.54 0 .97-.43.97-.97 0-1.72 1.4-3.11 3.11-3.11 1.72 0 3.11 1.4 3.11 3.11 0 .54.43.97.97.97h5.46c1.35 0 2.45 1.1 2.45 2.45v.8h-24v-.8c.02-1.35 1.12-2.45 2.47-2.45zm28.51 56.04h-37.93c-1.07 0-1.95-.87-1.95-1.94v-49.13c0-1.07.87-1.95 1.95-1.95h5.03v1.2c0 .54.43.97.97.97h25.94c.54 0 .97-.43.97-.97v-1.2h5.02c1.07 0 1.95.87 1.95 1.95v23.37c-.52.04-1.03.1-1.53.21-.28.06-.52.23-.66.49-.14.25-.16.55-.05.82l.09.23c.22.55-.06 1.17-.61 1.39s-1.18-.06-1.39-.6l-.09-.23c-.11-.27-.32-.47-.59-.57-.27-.09-.57-.06-.81.09-1.56.95-2.93 2.26-3.95 3.79-.16.24-.2.54-.12.81.08.28.28.5.54.62l.23.1c.26.11.46.32.57.59s.1.56-.02.82c-.23.52-.88.78-1.41.55l-.23-.1c-.26-.11-.56-.11-.82.02s-.44.36-.51.64c-.43 1.79-.47 3.68-.11 5.48.06.28.24.52.49.66s.55.15.82.05l.23-.09c.55-.22 1.18.07 1.39.6.1.27.1.56-.02.82s-.33.47-.59.57l-.23.09c-.27.11-.47.32-.56.59s-.06.57.09.81c.96 1.56 2.27 2.93 3.8 3.94.24.16.54.2.81.12.28-.08.5-.28.62-.54l.1-.23c.23-.53.87-.79 1.41-.55.26.11.46.32.57.59s.1.55-.02.82l-.1.23c-.11.26-.11.56.02.82s.36.45.64.51c.66.16 1.33.25 2.01.3v.5c-.01 1.07-.88 1.94-1.96 1.94zm13.56-13.54c-1.26-.12-2.53.61-3.05 1.79-.32.74-.34 1.55-.04 2.3.18.45.45.84.8 1.15-.55.68-1.19 1.3-1.89 1.83-.79-.97-2.21-1.37-3.43-.89-1.24.49-1.98 1.72-1.91 2.98-.88.09-1.76.07-2.63-.05.05-.47-.02-.94-.2-1.39-.29-.75-.86-1.34-1.59-1.65-1.17-.52-2.63-.18-3.46.76-.68-.56-1.3-1.19-1.83-1.9.36-.3.65-.68.85-1.12.32-.74.34-1.56.04-2.3-.48-1.22-1.67-1.98-2.98-1.91-.09-.88-.07-1.76.05-2.63 1.28.13 2.53-.61 3.05-1.79.32-.74.34-1.55.04-2.3-.18-.45-.45-.84-.8-1.15.55-.68 1.19-1.3 1.89-1.82.79.96 2.21 1.36 3.43.89 1.24-.49 1.98-1.72 1.9-2.98.88-.09 1.77-.07 2.63.05-.12 1.26.57 2.52 1.79 3.05 1.19.52 2.63.18 3.46-.76.68.56 1.3 1.2 1.83 1.9-.36.3-.65.68-.85 1.12-.32.74-.34 1.55-.04 2.3.48 1.22 1.7 1.97 2.98 1.91.1.85.08 1.74-.04 2.61z"/><path d="m48.03 41.18c-3.21 0-5.82 2.61-5.82 5.82s2.61 5.82 5.82 5.82 5.82-2.61 5.82-5.82-2.61-5.82-5.82-5.82zm0 9.7c-2.14 0-3.88-1.74-3.88-3.88s1.74-3.88 3.88-3.88 3.88 1.74 3.88 3.88-1.74 3.88-3.88 3.88z"/></g></g></svg>