<?xml version="1.0" standalone="no"?>
<!DOCTYPE svg PUBLIC "-//W3C//DTD SVG 20010904//EN"
 "http://www.w3.org/TR/2001/REC-SVG-20010904/DTD/svg10.dtd">
<svg version="1.0" xmlns="http://www.w3.org/2000/svg"
 width="512.000000pt" height="512.000000pt" viewBox="0 0 512.000000 512.000000"
 preserveAspectRatio="xMidYMid meet">

<g transform="translate(0.000000,512.000000) scale(0.100000,-0.100000)"
fill="#ffff" stroke="none">
<path d="M2470 4929 c-80 -10 -147 -31 -224 -70 -32 -17 -446 -294 -920 -617
-919 -626 -952 -650 -1029 -782 -21 -36 -50 -101 -65 -145 l-27 -80 -3 -1215
c-2 -1188 -2 -1216 18 -1295 66 -262 266 -460 530 -522 70 -17 184 -18 1810
-18 1964 0 1805 -7 1982 82 159 79 284 228 346 408 l27 80 0 1240 0 1240 -27
80 c-15 44 -44 109 -65 145 -78 132 -109 156 -1032 785 -476 324 -894 603
-930 621 -108 55 -265 80 -391 63z m241 -313 c58 -23 1725 -1152 1787 -1210
51 -47 88 -106 111 -174 21 -61 21 -75 21 -1236 0 -1160 0 -1176 -21 -1238
-37 -115 -131 -213 -246 -259 -56 -22 -69 -23 -348 -24 l-290 0 -5 970 -5 970
-37 78 c-50 103 -122 175 -225 225 l-78 37 -815 0 -815 0 -75 -36 c-90 -44
-146 -91 -192 -161 -79 -121 -72 -28 -78 -1113 l-5 -970 -290 0 c-276 1 -293
2 -345 23 -117 47 -212 145 -249 259 -21 63 -21 73 -21 1237 0 1147 0 1175 20
1237 23 74 70 141 132 191 83 67 1709 1170 1754 1189 99 44 214 46 315 5z
m639 -2168 c77 -53 89 -95 90 -300 l0 -148 -880 0 -880 0 0 158 c1 201 15 244
95 293 29 18 67 19 786 19 l756 0 33 -22z m90 -973 l0 -235 -880 0 -880 0 0
235 0 235 880 0 880 0 0 -235z m-5 -765 l0 -235 -875 0 -875 0 -3 225 c-1 123
0 230 3 237 3 11 176 13 877 11 l873 -3 0 -235z"/>
<path d="M2072 3530 c-87 -21 -132 -136 -83 -216 39 -64 37 -64 573 -64 452 0
486 1 518 19 92 49 96 179 7 245 -28 21 -37 21 -505 23 -262 1 -492 -2 -510
-7z"/>
</g>
</svg>
